<svg width="52" height="48" viewBox="0 0 52 48" fill="none" xmlns="http://www.w3.org/2000/svg">
<path d="M51.478 23.4527L47.3903 19.6592C46.3598 18.7058 45.1577 17.9269 43.8382 17.3576C44.6342 15.7464 45.0472 13.995 45.0486 12.2225V6.96817C45.0486 6.54063 44.6751 6.194 44.2144 6.194H38.5526C36.6424 6.19506 34.7548 6.57789 33.0183 7.31655C32.4049 6.092 31.5655 4.97642 30.5382 4.02012L26.4505 0.226664C26.1247 -0.0755546 25.5967 -0.0755546 25.2709 0.226664L21.1832 4.02012C20.1559 4.97642 19.3165 6.092 18.7031 7.31655C16.9671 6.57818 15.0802 6.19525 13.1705 6.194H7.50865C7.04795 6.194 6.67443 6.54063 6.67443 6.96817V12.2225C6.67557 13.9952 7.0881 15.7468 7.88405 17.3584C6.56452 17.9277 5.36241 18.7066 4.33193 19.66L0.244245 23.4534C-0.0814149 23.7557 -0.0814149 24.2458 0.244245 24.5481L4.33193 28.3416C5.36241 29.295 6.56452 30.0739 7.88405 30.6432C7.08841 32.2542 6.67578 34.0053 6.67443 35.7775V41.0318C6.67443 41.4594 7.04795 41.806 7.50865 41.806H13.1705C15.0807 41.8049 16.9683 41.4221 18.7047 40.6835C19.3182 41.908 20.1575 43.0236 21.1849 43.9799L25.2726 47.7733C25.5983 48.0756 26.1264 48.0756 26.4522 47.7733L30.5399 43.9799C31.5672 43.0236 32.4065 41.908 33.02 40.6835C34.756 41.4219 36.6429 41.8047 38.5526 41.806H44.2144C44.6751 41.806 45.0486 41.4594 45.0486 41.0318V35.7775C45.0475 34.0048 44.635 32.2532 43.839 30.6416C45.1585 30.0723 46.3607 29.2934 47.3911 28.34L51.4788 24.5466C51.8038 24.2442 51.8033 23.7547 51.478 23.4527ZM33.6323 8.75961C35.1725 8.09072 36.8521 7.74351 38.5526 7.74235H43.3802V12.2225C43.3795 13.801 43.0055 15.3602 42.2849 16.7901C41.0734 16.4379 39.8113 16.2585 38.5417 16.2583H38.208C36.4544 16.2578 34.7203 16.6007 33.1193 17.2647C33.8347 15.7789 34.2043 14.1696 34.2038 12.5422V12.2326C34.204 11.0547 34.0113 9.88371 33.6323 8.75961ZM38.208 17.8066H38.5417C39.5271 17.8084 40.5077 17.9345 41.4565 18.1813C41.019 18.7945 40.5159 19.3651 39.9549 19.8845L39.778 20.0486C37.5922 22.0875 34.6184 23.2304 31.5192 23.2227L27.8753 23.2258L30.5382 20.7547C32.5679 18.8607 35.3297 17.7992 38.208 17.8066ZM32.5353 12.2326V12.5422C32.5431 15.213 31.3992 17.7758 29.3586 19.6592L26.6958 22.1311V18.7457C26.6875 15.8696 27.919 13.1099 30.1161 11.0814L30.2929 10.9172C30.8526 10.3966 31.4675 9.92977 32.1282 9.52372C32.3957 10.4054 32.5326 11.3167 32.5353 12.2326ZM22.3645 5.1148L25.8615 1.86946L29.3586 5.1148C30.2712 5.96465 31.0123 6.95946 31.5468 8.05202C30.6653 8.5532 29.8493 9.14728 29.115 9.82255L28.9381 9.98668C27.5753 11.2523 26.5256 12.7779 25.8615 14.4575C25.1976 12.7782 24.1481 11.2529 22.7858 9.98745L22.6089 9.82333C21.8744 9.14776 21.0581 8.55339 20.1763 8.05202C20.7107 6.95956 21.4518 5.96474 22.3645 5.1148ZM19.1878 12.2326C19.1897 11.3181 19.3256 10.4081 19.5915 9.52759C20.2522 9.93355 20.8672 10.4005 21.4268 10.9211L21.6037 11.0852C23.8007 13.1138 25.0322 15.8735 25.024 18.7496V22.135L22.3611 19.6639C20.3205 17.7788 19.1777 15.2142 19.1878 12.5422V12.2326V12.2326ZM21.1841 20.7547L23.8477 23.2258H20.1997C17.1005 23.2335 14.1267 22.0906 11.9409 20.0517L11.764 19.8876C11.203 19.3682 10.7 18.7976 10.2624 18.1844C11.2125 17.9363 12.1945 17.8092 13.1814 17.8066H13.515C16.3931 17.7993 19.1546 18.8609 21.1841 20.7547ZM8.34287 7.74235H13.1705C14.8715 7.74302 16.5516 8.09005 18.0924 8.75884C17.7129 9.88313 17.5196 11.0544 17.5193 12.2326V12.5422C17.5188 14.1696 17.8884 15.7789 18.6038 17.2647C17.0027 16.6007 15.2687 16.2578 13.515 16.2583H13.1814C11.9122 16.2582 10.6503 16.4369 9.43904 16.7886C8.71827 15.3592 8.34412 13.8005 8.34287 12.2225V7.74235V7.74235ZM5.51152 27.2453L2.01446 24L5.51152 20.7547C6.42729 19.9077 7.49926 19.22 8.67656 18.724C9.21661 19.542 9.85678 20.2993 10.5844 20.9807L10.7613 21.1448C12.125 22.4096 13.769 23.3838 15.5789 24C13.7693 24.6161 12.1258 25.5901 10.7621 26.8544L10.5853 27.0185C9.8573 27.7002 9.21682 28.4577 8.67656 29.276C7.49937 28.78 6.42739 28.0923 5.51152 27.2453ZM18.0908 39.2404C16.5506 39.9093 14.871 40.2565 13.1705 40.2577H8.34287V35.7775C8.3436 34.199 8.71754 32.6398 9.43821 31.2099C10.6497 31.5621 11.9118 31.7415 13.1814 31.7417H13.515C15.2687 31.7422 17.0027 31.3993 18.6038 30.7353C17.8884 32.2211 17.5188 33.8304 17.5193 35.4578V35.7674C17.5192 36.9453 17.7119 38.1163 18.0908 39.2404ZM13.515 30.1934H13.1814C12.1959 30.1915 11.2154 30.0655 10.2666 29.8187C10.704 29.2055 11.2072 28.6349 11.7682 28.1155L11.945 27.9514C14.1309 25.9125 17.1047 24.7696 20.2038 24.7773L23.8477 24.7742L21.1849 27.2453C19.1552 29.1393 16.3933 30.2008 13.515 30.1934ZM19.1878 35.7674V35.4578C19.1799 32.787 20.3239 30.2242 22.3645 28.3408L25.0273 25.8689V29.2543C25.0355 32.1304 23.804 34.8901 21.607 36.9186L21.4301 37.0828C20.8705 37.6034 20.2556 38.0703 19.5949 38.4763C19.3275 37.5947 19.1906 36.6834 19.1878 35.7674ZM29.3586 42.8852L25.8615 46.1305L22.3645 42.8852C21.4523 42.0364 20.7112 41.0431 20.1763 39.9519C21.058 39.4495 21.874 38.8541 22.6081 38.1774L22.7849 38.0133C24.1476 36.7477 25.1975 35.2221 25.8615 33.5425C26.5255 35.2218 27.5749 36.7471 28.9373 38.0125L29.1142 38.1767C29.8485 38.8533 30.6648 39.4487 31.5468 39.9511C31.012 41.0426 30.2709 42.0362 29.3586 42.8852ZM32.5353 35.7674C32.5332 36.6819 32.3975 37.5919 32.1315 38.4724C31.4708 38.0665 30.8559 37.5995 30.2963 37.0789L30.1194 36.9148C27.9224 34.8862 26.6909 32.1265 26.6991 29.2504V25.8689L29.3619 28.34C31.4015 30.2241 32.5443 32.7871 32.5353 35.4578V35.7674V35.7674ZM30.539 27.2453L27.8753 24.7742H31.5234C34.6225 24.7665 37.5963 25.9094 39.7822 27.9483L39.9591 28.1124C40.5201 28.6318 41.0231 29.2024 41.4607 29.8156C40.5106 30.0637 39.5287 30.1909 38.5417 30.1934H38.208C35.3301 30.2007 32.5686 29.1391 30.539 27.2453ZM43.3802 40.2577H38.5526C36.8516 40.257 35.1715 39.91 33.6306 39.2412C34.0102 38.1169 34.2034 36.9456 34.2038 35.7674V35.4578C34.2043 33.8304 33.8347 32.2211 33.1193 30.7353C34.7203 31.3993 36.4544 31.7422 38.208 31.7417H38.5417C39.8109 31.7418 41.0727 31.5631 42.284 31.2114C43.0048 32.6407 43.3789 34.1995 43.3802 35.7775V40.2577ZM46.2115 27.2453C45.2969 28.0919 44.2265 28.7797 43.0507 29.276C42.5094 28.4578 41.8678 27.7005 41.1386 27.0193L40.9618 26.8552C39.598 25.5905 37.9541 24.6162 36.1442 24C37.9538 23.3839 39.5973 22.4099 40.961 21.1456L41.1378 20.9815C41.8669 20.3 42.5085 19.5425 43.0498 18.724C44.2257 19.2203 45.2962 19.9081 46.2107 20.7547L49.7086 24L46.2115 27.2453Z" fill="#F63E7B"/>
</svg>
